<?xml version="1.0" standalone="no"?>
<!DOCTYPE svg PUBLIC "-//W3C//DTD SVG 20010904//EN"
 "http://www.w3.org/TR/2001/REC-SVG-20010904/DTD/svg10.dtd">
<svg version="1.0" xmlns="http://www.w3.org/2000/svg"
 width="5000" height="25000" viewBox="0 0 300.000000 533.000000"
 preserveAspectRatio="xMidYMid meet">
<metadata>
Created by potrace 1.10, written by Peter Selinger 2001-2011
</metadata>
<g transform="translate(0.000000,533.000000) scale(0.100000,-0.100000)"
fill="#7DFFAF" stroke="none">
<path d="M1080 3870 l-265 -5 0 -103 0 -102 163 0 162 0 -2 -444 -3 -444 150
-5 c83 -3 167 -9 188 -12 53 -10 154 39 191 94 31 44 77 151 70 162 -2 4 0 27
5 51 6 25 6 66 2 98 -8 49 -9 51 -10 16 -4 -128 -46 -235 -114 -290 -35 -28
-46 -31 -117 -33 -71 -2 -82 1 -124 28 -42 26 -55 29 -126 29 l-80 0 0 395 0
395 -130 0 -130 0 0 75 0 75 214 0 c178 0 216 3 226 15 7 8 9 14 4 13 -5 -1
-128 -5 -274 -8z m-195 -64 c12 -59 -13 -140 -30 -98 -7 16 -8 36 -6 95 1 30
30 32 36 3z m468 -942 c18 -9 35 -22 39 -27 9 -15 171 -18 180 -4 6 9 8 9 8 0
0 -6 -16 -21 -35 -33 -29 -18 -44 -20 -87 -15 -29 4 -100 8 -158 9 -58 1 -111
5 -118 10 -13 8 -17 58 -5 69 14 14 144 7 176 -9z"/>
<path d="M1278 3798 c-75 -104 -83 -324 -17 -433 33 -54 78 -89 184 -143 65
-32 88 -53 104 -92 9 -23 10 -21 10 17 1 56 -31 92 -122 140 -40 21 -91 57
-114 80 -59 61 -73 112 -70 249 3 106 5 115 35 163 34 56 27 70 -10 19z"/>
<path d="M1703 3699 c3 -9 9 -37 12 -63 l7 -46 -86 0 c-82 0 -86 1 -87 23 -1
12 -1 25 -1 28 2 16 -49 59 -70 59 -28 -1 -63 -25 -49 -34 5 -4 12 -2 16 4 3
5 12 10 20 10 18 0 65 -41 69 -60 10 -59 11 -60 108 -60 l91 0 -6 59 c-3 33
-10 67 -17 78 -8 13 -10 14 -7 2z"/>
</g>
</svg>
