<svg width="20" height="19" viewBox="0 0 20 19" fill="none" xmlns="http://www.w3.org/2000/svg">
<path d="M19.4999 7C19.4999 7.19891 19.4209 7.38968 19.2803 7.53033C19.1396 7.67098 18.9489 7.75 18.7499 7.75H17.2499V9.25C17.2499 9.44891 17.1709 9.63968 17.0303 9.78033C16.8896 9.92098 16.6989 10 16.4999 10C16.301 10 16.1103 9.92098 15.9696 9.78033C15.829 9.63968 15.7499 9.44891 15.7499 9.25V7.75H14.2499C14.051 7.75 13.8603 7.67098 13.7196 7.53033C13.579 7.38968 13.4999 7.19891 13.4999 7C13.4999 6.80109 13.579 6.61032 13.7196 6.46967C13.8603 6.32902 14.051 6.25 14.2499 6.25H15.7499V4.75C15.7499 4.55109 15.829 4.36032 15.9696 4.21967C16.1103 4.07902 16.301 4 16.4999 4C16.6989 4 16.8896 4.07902 17.0303 4.21967C17.1709 4.36032 17.2499 4.55109 17.2499 4.75V6.25H18.7499C18.9489 6.25 19.1396 6.32902 19.2803 6.46967C19.4209 6.61032 19.4999 6.80109 19.4999 7ZM10.4999 3.25H11.2499V4C11.2499 4.19891 11.329 4.38968 11.4696 4.53033C11.6103 4.67098 11.801 4.75 11.9999 4.75C12.1989 4.75 12.3896 4.67098 12.5303 4.53033C12.6709 4.38968 12.7499 4.19891 12.7499 4V3.25H13.4999C13.6989 3.25 13.8896 3.17098 14.0303 3.03033C14.1709 2.88968 14.2499 2.69891 14.2499 2.5C14.2499 2.30109 14.1709 2.11032 14.0303 1.96967C13.8896 1.82902 13.6989 1.75 13.4999 1.75H12.7499V1C12.7499 0.801088 12.6709 0.610322 12.5303 0.46967C12.3896 0.329018 12.1989 0.25 11.9999 0.25C11.801 0.25 11.6103 0.329018 11.4696 0.46967C11.329 0.610322 11.2499 0.801088 11.2499 1V1.75H10.4999C10.301 1.75 10.1103 1.82902 9.96962 1.96967C9.82897 2.11032 9.74995 2.30109 9.74995 2.5C9.74995 2.69891 9.82897 2.88968 9.96962 3.03033C10.1103 3.17098 10.301 3.25 10.4999 3.25ZM17.3221 12.3438C17.4094 12.4454 17.4679 12.5686 17.4915 12.7005C17.5151 12.8324 17.5029 12.9682 17.4562 13.0938C16.9358 14.513 16.0662 15.7784 14.9278 16.773C13.7894 17.7676 12.4188 18.4594 10.9426 18.7846C9.46626 19.1098 7.93184 19.058 6.48088 18.6338C5.02993 18.2096 3.7092 17.4267 2.64058 16.3575C1.57196 15.2883 0.789876 13.9671 0.36651 12.5159C-0.0568559 11.0647 -0.107866 9.53027 0.218189 8.05416C0.544243 6.57806 1.23686 5.20786 2.23211 4.07002C3.22736 2.93218 4.49318 2.06337 5.91276 1.54375C6.03771 1.49799 6.17258 1.4863 6.30354 1.50987C6.4345 1.53344 6.55683 1.59142 6.65798 1.67788C6.75913 1.76434 6.83546 1.87614 6.87914 2.00184C6.92281 2.12753 6.93226 2.26258 6.90651 2.39313C6.64369 3.72341 6.71255 5.09795 7.10701 6.3953C7.50147 7.69266 8.20939 8.87289 9.16823 9.83172C10.1271 10.7906 11.3073 11.4985 12.6046 11.8929C13.902 12.2874 15.2765 12.3563 16.6068 12.0934C16.7375 12.0679 16.8727 12.0776 16.9984 12.1216C17.1241 12.1656 17.2359 12.2423 17.3221 12.3438ZM15.5043 13.7388C15.3365 13.7472 15.1678 13.7519 14.9999 13.7519C12.4146 13.7491 9.93595 12.7208 8.10801 10.8925C6.28007 9.06419 5.25218 6.58535 5.24995 4C5.24995 3.83219 5.24995 3.66344 5.26307 3.49563C4.26518 4.06985 3.41289 4.86611 2.77223 5.82271C2.13156 6.7793 1.71973 7.87055 1.56864 9.01191C1.41754 10.1533 1.53125 11.3141 1.90093 12.4044C2.27062 13.4948 2.88637 14.4854 3.70047 15.2995C4.51457 16.1136 5.50517 16.7293 6.59552 17.099C7.68586 17.4687 8.84668 17.5824 9.98804 17.4313C11.1294 17.2802 12.2206 16.8684 13.1772 16.2277C14.1338 15.5871 14.9301 14.7348 15.5043 13.7369V13.7388Z" fill="#F5F6F6"/>
</svg>
