<svg width="245" height="105" viewBox="0 0 245 105" fill="none" xmlns="http://www.w3.org/2000/svg">
<g id="Keyboard">
<path id="Vector" d="M243.882 1.68091H0.630859V104.055H243.882V1.68091Z" fill="url(#paint0_linear_512_1127)" stroke="black" stroke-width="1.04514" stroke-linecap="round" stroke-linejoin="round"/>
<path id="Vector_2" d="M28.5974 7.87711H5.71387V20.533H28.5974V7.87711Z" fill="white" stroke="black" stroke-width="1.04514" stroke-miterlimit="10"/>
<path id="Vector_3" d="M238.25 69.5864H202.206V82.2422H238.25V69.5864Z" fill="white" stroke="black" stroke-width="1.04514" stroke-miterlimit="10"/>
<path id="Vector_4" d="M238.251 23.6838H216V36.3396H238.251V23.6838Z" fill="white" stroke="black" stroke-width="1.04514" stroke-miterlimit="10"/>
<path id="Vector_5" d="M28.5974 53.98H5.71387V66.6358H28.5974V53.98Z" fill="white" stroke="black" stroke-width="1.04514" stroke-miterlimit="10"/>
<path id="Vector_6" d="M24.2421 38.7317H5.71387V51.3876H24.2421V38.7317Z" fill="white" stroke="black" stroke-width="1.04514" stroke-miterlimit="10"/>
<path id="Vector_7" d="M18.3789 23.3044H5.71387V35.9603H18.3789V23.3044Z" fill="white" stroke="black" stroke-width="1.04514" stroke-miterlimit="10"/>
<path id="Vector_8" d="M34.5557 23.3044H21.8906V35.9603H34.5557V23.3044Z" fill="white" stroke="black" stroke-width="1.04514" stroke-miterlimit="10"/>
<path id="Vector_9" d="M50.7217 23.3044H38.0566V35.9603H50.7217V23.3044Z" fill="white" stroke="black" stroke-width="1.04514" stroke-miterlimit="10"/>
<path id="Vector_10" d="M66.8877 23.3044H54.2227V35.9603H66.8877V23.3044Z" fill="white" stroke="black" stroke-width="1.04514" stroke-miterlimit="10"/>
<path id="Vector_11" d="M83.0645 23.3044H70.3994V35.9603H83.0645V23.3044Z" fill="white" stroke="black" stroke-width="1.04514" stroke-miterlimit="10"/>
<path id="Vector_12" d="M99.2304 23.3044H86.5654V35.9603H99.2304V23.3044Z" fill="white" stroke="black" stroke-width="1.04514" stroke-miterlimit="10"/>
<path id="Vector_13" d="M115.396 23.3044H102.731V35.9603H115.396V23.3044Z" fill="white" stroke="black" stroke-width="1.04514" stroke-miterlimit="10"/>
<path id="Vector_14" d="M131.573 23.3044H118.908V35.9603H131.573V23.3044Z" fill="white" stroke="black" stroke-width="1.04514" stroke-miterlimit="10"/>
<path id="Vector_15" d="M147.739 23.3044H135.074V35.9603H147.739V23.3044Z" fill="white" stroke="black" stroke-width="1.04514" stroke-miterlimit="10"/>
<path id="Vector_16" d="M163.905 23.3044H151.24V35.9603H163.905V23.3044Z" fill="white" stroke="black" stroke-width="1.04514" stroke-miterlimit="10"/>
<path id="Vector_17" d="M180.082 23.3044H167.417V35.9603H180.082V23.3044Z" fill="white" stroke="black" stroke-width="1.04514" stroke-miterlimit="10"/>
<path id="Vector_18" d="M196.248 23.3044H183.583V35.9603H196.248V23.3044Z" fill="white" stroke="black" stroke-width="1.04514" stroke-miterlimit="10"/>
<path id="Vector_19" d="M212.425 23.3044H199.76V35.9603H212.425V23.3044Z" fill="white" stroke="black" stroke-width="1.04514" stroke-miterlimit="10"/>
<path id="Vector_20" d="M18.3789 85.2032H5.71387V97.8591H18.3789V85.2032Z" fill="white" stroke="black" stroke-width="1.04514" stroke-miterlimit="10"/>
<path id="Vector_21" d="M34.5557 85.2032H21.8906V97.8591H34.5557V85.2032Z" fill="white" stroke="black" stroke-width="1.04514" stroke-miterlimit="10"/>
<path id="Vector_22" d="M50.7217 85.2032H38.0566V97.8591H50.7217V85.2032Z" fill="white" stroke="black" stroke-width="1.04514" stroke-miterlimit="10"/>
<path id="Vector_23" d="M69.6822 85.2032H54.2227V97.8591H69.6822V85.2032Z" fill="white" stroke="black" stroke-width="1.04514" stroke-miterlimit="10"/>
<path id="Vector_24" d="M150.534 85.2032H73.1836V97.8591H150.534V85.2032Z" fill="white" stroke="black" stroke-width="1.04514" stroke-miterlimit="10"/>
<path id="Vector_25" d="M189.203 85.2032H176.538V97.8591H189.203V85.2032Z" fill="white" stroke="black" stroke-width="1.04514" stroke-miterlimit="10"/>
<path id="Vector_26" d="M205.37 85.2032H192.705V97.8591H205.37V85.2032Z" fill="white" stroke="black" stroke-width="1.04514" stroke-miterlimit="10"/>
<path id="Vector_27" d="M221.567 85.2032H208.902V97.8591H221.567V85.2032Z" fill="white" stroke="black" stroke-width="1.04514" stroke-miterlimit="10"/>
<path id="Vector_28" d="M173.364 85.2032H153.697V97.8591H173.364V85.2032Z" fill="white" stroke="black" stroke-width="1.04514" stroke-miterlimit="10"/>
<path id="Vector_29" d="M238.25 85.2032H225.585V97.8591H238.25V85.2032Z" fill="white" stroke="black" stroke-width="1.04514" stroke-miterlimit="10"/>
<path id="Vector_30" d="M40.5029 38.7317H27.8379V51.3876H40.5029V38.7317Z" fill="white" stroke="black" stroke-width="1.04514" stroke-miterlimit="10"/>
<path id="Vector_31" d="M56.6689 38.7317H44.0039V51.3876H56.6689V38.7317Z" fill="white" stroke="black" stroke-width="1.04514" stroke-miterlimit="10"/>
<path id="Vector_32" d="M72.8457 38.7317H60.1807V51.3876H72.8457V38.7317Z" fill="white" stroke="black" stroke-width="1.04514" stroke-miterlimit="10"/>
<path id="Vector_33" d="M89.0117 38.7317H76.3467V51.3876H89.0117V38.7317Z" fill="white" stroke="black" stroke-width="1.04514" stroke-miterlimit="10"/>
<path id="Vector_34" d="M105.188 38.7317H92.5234V51.3876H105.188V38.7317Z" fill="white" stroke="black" stroke-width="1.04514" stroke-miterlimit="10"/>
<path id="Vector_35" d="M121.354 38.7317H108.689V51.3876H121.354V38.7317Z" fill="white" stroke="black" stroke-width="1.04514" stroke-miterlimit="10"/>
<path id="Vector_36" d="M137.52 38.7317H124.855V51.3876H137.52V38.7317Z" fill="white" stroke="black" stroke-width="1.04514" stroke-miterlimit="10"/>
<path id="Vector_37" d="M153.697 38.7317H141.032V51.3876H153.697V38.7317Z" fill="white" stroke="black" stroke-width="1.04514" stroke-miterlimit="10"/>
<path id="Vector_38" d="M169.863 38.7317H157.198V51.3876H169.863V38.7317Z" fill="white" stroke="black" stroke-width="1.04514" stroke-miterlimit="10"/>
<path id="Vector_39" d="M186.029 38.7317H173.364V51.3876H186.029V38.7317Z" fill="white" stroke="black" stroke-width="1.04514" stroke-miterlimit="10"/>
<path id="Vector_40" d="M202.206 38.7317H189.541V51.3876H202.206V38.7317Z" fill="white" stroke="black" stroke-width="1.04514" stroke-miterlimit="10"/>
<path id="Vector_41" d="M218.372 38.7317H205.707V51.3876H218.372V38.7317Z" fill="white" stroke="black" stroke-width="1.04514" stroke-miterlimit="10"/>
<path id="Vector_42" d="M238.25 38.7317V66.8254H225.585V51.3981H221.873V38.7317H238.25Z" fill="white" stroke="black" stroke-width="1.04514" stroke-miterlimit="10"/>
<path id="Vector_43" d="M44.2148 54.1591H31.5498V66.8149H44.2148V54.1591Z" fill="white" stroke="black" stroke-width="1.04514" stroke-miterlimit="10"/>
<path id="Vector_44" d="M60.3808 54.1591H47.7158V66.8149H60.3808V54.1591Z" fill="white" stroke="black" stroke-width="1.04514" stroke-miterlimit="10"/>
<path id="Vector_45" d="M76.5469 54.1591H63.8818V66.8149H76.5469V54.1591Z" fill="white" stroke="black" stroke-width="1.04514" stroke-miterlimit="10"/>
<path id="Vector_46" d="M92.7236 54.1591H80.0586V66.8149H92.7236V54.1591Z" fill="white" stroke="black" stroke-width="1.04514" stroke-miterlimit="10"/>
<path id="Vector_47" d="M108.89 54.1591H96.2246V66.8149H108.89V54.1591Z" fill="white" stroke="black" stroke-width="1.04514" stroke-miterlimit="10"/>
<path id="Vector_48" d="M125.066 54.1591H112.401V66.8149H125.066V54.1591Z" fill="white" stroke="black" stroke-width="1.04514" stroke-miterlimit="10"/>
<path id="Vector_49" d="M141.232 54.1591H128.567V66.8149H141.232V54.1591Z" fill="white" stroke="black" stroke-width="1.04514" stroke-miterlimit="10"/>
<path id="Vector_50" d="M157.398 54.1591H144.733V66.8149H157.398V54.1591Z" fill="white" stroke="black" stroke-width="1.04514" stroke-miterlimit="10"/>
<path id="Vector_51" d="M173.575 54.1591H160.91V66.8149H173.575V54.1591Z" fill="white" stroke="black" stroke-width="1.04514" stroke-miterlimit="10"/>
<path id="Vector_52" d="M189.741 54.1591H177.076V66.8149H189.741V54.1591Z" fill="white" stroke="black" stroke-width="1.04514" stroke-miterlimit="10"/>
<path id="Vector_53" d="M205.908 54.1591H193.243V66.8149H205.908V54.1591Z" fill="white" stroke="black" stroke-width="1.04514" stroke-miterlimit="10"/>
<path id="Vector_54" d="M222.085 54.1591H209.42V66.8149H222.085V54.1591Z" fill="white" stroke="black" stroke-width="1.04514" stroke-miterlimit="10"/>
<path id="Vector_55" d="M37.3398 69.5864H24.6748V82.2422H37.3398V69.5864Z" fill="white" stroke="black" stroke-width="1.04514" stroke-miterlimit="10"/>
<path id="Vector_56" d="M53.5059 69.5864H40.8408V82.2422H53.5059V69.5864Z" fill="white" stroke="black" stroke-width="1.04514" stroke-miterlimit="10"/>
<path id="Vector_57" d="M69.6826 69.5864H57.0176V82.2422H69.6826V69.5864Z" fill="white" stroke="black" stroke-width="1.04514" stroke-miterlimit="10"/>
<path id="Vector_58" d="M85.8486 69.5864H73.1836V82.2422H85.8486V69.5864Z" fill="white" stroke="black" stroke-width="1.04514" stroke-miterlimit="10"/>
<path id="Vector_59" d="M102.015 69.5864H89.3496V82.2422H102.015V69.5864Z" fill="white" stroke="black" stroke-width="1.04514" stroke-miterlimit="10"/>
<path id="Vector_60" d="M118.19 69.5864H105.525V82.2422H118.19V69.5864Z" fill="white" stroke="black" stroke-width="1.04514" stroke-miterlimit="10"/>
<path id="Vector_61" d="M134.357 69.5864H121.692V82.2422H134.357V69.5864Z" fill="white" stroke="black" stroke-width="1.04514" stroke-miterlimit="10"/>
<path id="Vector_62" d="M150.534 69.5864H137.869V82.2422H150.534V69.5864Z" fill="white" stroke="black" stroke-width="1.04514" stroke-miterlimit="10"/>
<path id="Vector_63" d="M166.7 69.5864H154.035V82.2422H166.7V69.5864Z" fill="white" stroke="black" stroke-width="1.04514" stroke-miterlimit="10"/>
<path id="Vector_64" d="M182.866 69.5864H170.201V82.2422H182.866V69.5864Z" fill="white" stroke="black" stroke-width="1.04514" stroke-miterlimit="10"/>
<path id="Vector_65" d="M199.043 69.5864H186.378V82.2422H199.043V69.5864Z" fill="white" stroke="black" stroke-width="1.04514" stroke-miterlimit="10"/>
<path id="Vector_66" d="M44.2148 8.63583H31.5498V21.2917H44.2148V8.63583Z" fill="white" stroke="black" stroke-width="1.04514" stroke-miterlimit="10"/>
<path id="Vector_67" d="M60.3808 8.63583H47.7158V21.2917H60.3808V8.63583Z" fill="white" stroke="black" stroke-width="1.04514" stroke-miterlimit="10"/>
<path id="Vector_68" d="M76.5469 8.63583H63.8818V21.2917H76.5469V8.63583Z" fill="white" stroke="black" stroke-width="1.04514" stroke-miterlimit="10"/>
<path id="Vector_69" d="M92.7236 8.63583H80.0586V21.2917H92.7236V8.63583Z" fill="white" stroke="black" stroke-width="1.04514" stroke-miterlimit="10"/>
<path id="Vector_70" d="M108.89 8.63583H96.2246V21.2917H108.89V8.63583Z" fill="white" stroke="black" stroke-width="1.04514" stroke-miterlimit="10"/>
<path id="Vector_71" d="M125.066 8.63583H112.401V21.2917H125.066V8.63583Z" fill="white" stroke="black" stroke-width="1.04514" stroke-miterlimit="10"/>
<path id="Vector_72" d="M141.232 8.63583H128.567V21.2917H141.232V8.63583Z" fill="white" stroke="black" stroke-width="1.04514" stroke-miterlimit="10"/>
<path id="Vector_73" d="M157.398 8.63583H144.733V21.2917H157.398V8.63583Z" fill="white" stroke="black" stroke-width="1.04514" stroke-miterlimit="10"/>
<path id="Vector_74" d="M173.575 8.63583H160.91V21.2917H173.575V8.63583Z" fill="white" stroke="black" stroke-width="1.04514" stroke-miterlimit="10"/>
<path id="Vector_75" d="M189.741 8.63583H177.076V21.2917H189.741V8.63583Z" fill="white" stroke="black" stroke-width="1.04514" stroke-miterlimit="10"/>
<path id="Vector_76" d="M205.908 8.63583H193.243V21.2917H205.908V8.63583Z" fill="white" stroke="black" stroke-width="1.04514" stroke-miterlimit="10"/>
<path id="Vector_77" d="M222.085 8.63583H209.42V21.2917H222.085V8.63583Z" fill="white" stroke="black" stroke-width="1.04514" stroke-miterlimit="10"/>
<path id="Vector_78" d="M238.25 8.63583H225.585V21.2917H238.25V8.63583Z" fill="white" stroke="black" stroke-width="1.04514" stroke-miterlimit="10"/>
<path id="Vector_79" d="M21.0574 69.5864H5.71387V82.2422H21.0574V69.5864Z" fill="white" stroke="black" stroke-width="1.04514" stroke-miterlimit="10"/>
<path id="Vector_80" d="M0.630859 2.33437L5.71375 0.648315H240.581L243.924 2.31327L0.630859 2.33437Z" fill="black"/>
</g>
<defs>
<linearGradient id="paint0_linear_512_1127" x1="122.256" y1="1.68091" x2="122.256" y2="104.055" gradientUnits="userSpaceOnUse">
<stop stop-color="#7DFFAF"/>
<stop offset="1" stop-color="#9955E8"/>
</linearGradient>
</defs>
</svg>
