<svg width="24" height="24" viewBox="0 0 24 24" fill="none" xmlns="http://www.w3.org/2000/svg">
<g id="Python" clip-path="url(#clip0_316_891)">
<path id="Vector" d="M9.24932 11.625H14.7166C16.2386 11.625 17.4374 10.3373 17.4374 8.80897V3.59685C17.4374 2.11335 16.1939 0.998845 14.7084 0.751345C13.7683 0.594782 12.7968 0.523532 11.8608 0.528032C10.9252 0.532345 10.0586 0.612032 9.27238 0.751345C6.95582 1.16028 6.56244 2.01716 6.56244 3.59685V5.62503H11.9999V6.37503H4.45794C2.86719 6.37503 1.47407 7.33278 1.0385 9.15209C0.535817 11.2371 0.513504 12.5119 1.0385 14.689C1.42757 16.3093 2.35663 17.4375 3.94757 17.4375H5.81244V14.991C5.81244 13.1841 7.39269 11.625 9.24932 11.625ZM8.90469 4.29191C8.33732 4.29191 7.87757 3.8271 7.87757 3.25222C7.87757 2.67491 8.33713 2.20578 8.90469 2.20578C9.47001 2.20578 9.932 2.67491 9.932 3.25222C9.93182 3.8271 9.46982 4.29191 8.90469 4.29191ZM22.9276 9.15209C22.5343 7.5681 21.7833 6.37503 20.1903 6.37503H18.1874V8.80897C18.1874 10.6933 16.5386 12.1875 14.7166 12.1875H9.24932C7.75157 12.1875 6.56244 13.5612 6.56244 15.0612V20.2737C6.56244 21.7568 7.82713 22.6294 9.27407 23.055C11.0069 23.5645 12.6479 23.6565 14.7211 23.055C16.0991 22.6558 17.4374 21.853 17.4374 20.2737V18.1875H11.9999V17.4375H20.1903C21.7811 17.4375 22.3741 16.3545 22.9276 14.6888C23.4989 12.9741 23.4744 11.3515 22.9276 9.15209ZM15.0611 19.5782C15.6286 19.5782 16.0884 20.043 16.0884 20.6183C16.0884 21.195 15.6288 21.6643 15.0611 21.6643C14.4958 21.6643 14.0339 21.1952 14.0339 20.6183C14.0339 20.043 14.4958 19.5782 15.0611 19.5782Z" fill="#F5F6F6"/>
</g>
<defs>
<clipPath id="clip0_316_891">
<rect width="24" height="24" fill="white"/>
</clipPath>
</defs>
</svg>
